<svg xmlns="http://www.w3.org/2000/svg" viewBox="0 0 1400 900" role="img" aria-label="Stamping die cross section sketch">
  <defs>
    <linearGradient id="bg" x1="0" y1="0" x2="1" y2="1">
      <stop offset="0%" stop-color="#0b1220"/>
      <stop offset="100%" stop-color="#0f172a"/>
    </linearGradient>
  </defs>
  <rect width="100%" height="100%" fill="url(#bg)"/>
  <g stroke="#74c7ec" stroke-width="8" fill="none" stroke-linecap="round" stroke-linejoin="round" opacity="0.9">
    <path d="M200 620 Q320 560 480 560 Q680 560 920 620 Q1080 660 1180 620"/>
    <path d="M230 520 Q360 470 520 470 Q760 470 1040 520"/>
    <path d="M250 420 Q420 380 620 380 Q880 380 1130 430" stroke-dasharray="24 22"/>
    <rect x="260" y="640" width="880" height="70" rx="26"/>
    <path d="M360 360 v-120"/><path d="M520 340 v-120"/><path d="M680 330 v-120"/><path d="M840 340 v-120"/><path d="M1000 360 v-120"/>
    <path d="M360 260 h640" stroke="#22d3ee" stroke-width="6"/>
    <circle cx="520" cy="470" r="26"/><circle cx="680" cy="470" r="26"/><circle cx="840" cy="470" r="26"/>
  </g>
  <g fill="#e2e8f0" font-family="'Inter',system-ui" font-size="32" opacity="0.9">
    <text x="60" y="90">Stamping Die Section</text>
    <text x="60" y="140" fill="#94a3b8">Simplified sketch inspired by provided drawing</text>
  </g>
</svg>
